<?xml version="1.0" standalone="no"?>
<!DOCTYPE svg PUBLIC "-//W3C//DTD SVG 20010904//EN"
 "http://www.w3.org/TR/2001/REC-SVG-20010904/DTD/svg10.dtd">
<svg version="1.0" xmlns="http://www.w3.org/2000/svg"
 width="466.000000pt" height="466.000000pt" viewBox="0 0 466.000000 466.000000"
 preserveAspectRatio="xMidYMid meet">
<metadata>
Created by potrace 1.11, written by Peter Selinger 2001-2013
</metadata>
<g transform="translate(0.000000,466.000000) scale(0.100000,-0.100000)"
fill="#000000" stroke="none">
<path d="M1139 4603 c-1 -5 -1 -12 0 -17 1 -5 -5 -4 -13 3 -13 11 -15 10 -11
-8 2 -12 0 -21 -5 -21 -4 0 -7 -8 -5 -17 3 -22 -22 -53 -44 -53 -10 0 -12 -3
-5 -8 7 -5 7 -14 -1 -29 -7 -13 -15 -20 -20 -15 -5 4 -5 2 -2 -4 9 -15 -12
-84 -25 -84 -6 0 -5 7 3 18 11 15 11 15 -1 4 -8 -7 -15 -18 -16 -25 0 -7 -2
-20 -2 -30 -1 -10 -6 -16 -11 -13 -5 4 -8 -5 -7 -18 2 -17 -1 -23 -11 -19 -8
3 -13 2 -11 -3 5 -19 -12 -74 -23 -74 -8 0 -7 6 2 18 13 15 12 16 -3 3 -10 -7
-15 -18 -12 -23 3 -5 -2 -16 -12 -24 -11 -9 -14 -13 -7 -10 6 4 15 2 18 -4 4
-6 3 -10 -2 -9 -20 3 -34 -2 -28 -11 3 -5 0 -10 -7 -10 -9 0 -9 -3 2 -10 11
-7 11 -10 2 -10 -7 0 -10 -4 -7 -10 3 -5 1 -10 -6 -10 -7 0 -9 -3 -6 -7 4 -3
2 -12 -4 -20 -9 -10 -8 -13 0 -13 8 0 7 -6 -3 -16 -9 -8 -13 -20 -10 -26 4 -6
3 -9 -2 -6 -5 3 -18 -3 -29 -14 -19 -18 -19 -19 -1 -12 14 5 17 4 12 -4 -4 -7
-13 -12 -19 -12 -7 0 -14 -12 -15 -27 -1 -15 -6 -29 -11 -32 -4 -3 -7 -16 -6
-28 1 -12 -2 -20 -6 -17 -4 2 -10 0 -14 -6 -3 -5 -1 -10 5 -10 6 0 8 -5 5 -10
-4 -6 -10 -8 -15 -5 -4 3 -11 -2 -14 -11 -3 -9 -2 -12 5 -8 6 3 5 -3 -2 -14
-7 -12 -17 -18 -21 -16 -4 3 -8 0 -8 -7 0 -6 -8 -17 -17 -24 -16 -12 -20 -24
-25 -72 -2 -18 -5 -20 -17 -10 -12 9 -13 9 -7 0 4 -8 2 -13 -6 -13 -10 0 -10
-2 1 -9 11 -7 9 -11 -8 -20 -11 -6 -20 -15 -20 -19 4 -22 -2 -32 -13 -26 -10
6 -10 4 0 -8 10 -13 10 -18 1 -24 -8 -5 -9 -3 -4 6 5 8 4 11 -2 7 -6 -4 -8
-19 -5 -33 3 -19 1 -25 -7 -20 -7 5 -11 0 -11 -13 0 -11 -4 -22 -9 -25 -4 -3
-11 -19 -14 -36 -4 -16 -12 -30 -18 -30 -8 0 -7 6 2 18 13 15 12 16 -3 3 -10
-7 -15 -17 -12 -22 3 -5 -2 -23 -10 -40 -9 -17 -13 -36 -9 -42 4 -6 1 -7 -6
-3 -8 5 -14 1 -18 -12 -3 -14 -10 -19 -21 -15 -13 4 -13 2 2 -9 18 -14 18 -15
-5 -21 -17 -5 -20 -9 -11 -15 10 -7 10 -11 -2 -21 -8 -7 -12 -19 -9 -27 3 -8
-3 -17 -13 -21 -11 -5 -19 -14 -20 -20 -3 -38 -5 -44 -12 -39 -5 3 -9 -1 -9
-9 0 -8 5 -15 11 -15 5 0 1 -7 -10 -15 -10 -8 -15 -15 -10 -15 5 0 3 -7 -4
-15 -7 -8 -9 -15 -4 -15 5 0 2 -5 -6 -10 -8 -5 -16 -14 -16 -20 -1 -5 -2 -15
-3 -21 0 -5 -4 -8 -9 -5 -4 2 -12 -7 -19 -20 -8 -18 -8 -22 0 -17 7 3 5 -2 -4
-13 -9 -10 -14 -25 -12 -31 3 -7 -1 -13 -8 -13 -7 0 -9 -3 -6 -7 4 -3 -2 -13
-13 -20 -11 -8 -18 -18 -15 -23 7 -11 -5 -41 -15 -35 -4 3 -10 -2 -13 -9 -3
-8 -1 -17 6 -20 9 -3 9 -5 0 -5 -7 -1 -13 -8 -13 -17 0 -8 -4 -12 -10 -9 -6 3
-7 -1 -4 -9 3 -9 1 -16 -6 -16 -6 0 -8 -4 -5 -10 8 -13 -13 -50 -28 -50 -7 0
-6 4 3 10 8 5 10 10 4 10 -6 0 -18 -8 -25 -17 -10 -11 -10 -14 -1 -9 6 4 12 2
12 -4 0 -6 -10 -15 -22 -20 -13 -5 -18 -9 -11 -9 19 -1 3 -31 -16 -31 -10 0
-12 -3 -5 -8 7 -5 7 -14 -1 -29 -7 -13 -15 -20 -20 -15 -5 4 -5 2 -2 -4 9 -15
-12 -84 -25 -84 -6 0 -5 7 3 18 11 15 11 15 -1 4 -8 -7 -15 -18 -16 -25 0 -7
-2 -20 -2 -30 -1 -10 -6 -15 -12 -12 -5 3 -10 1 -10 -4 0 -6 6 -11 13 -11 7 0
8 -3 2 -8 -14 -10 -20 -66 -6 -58 15 10 14 -7 -1 -23 -11 -11 -9 -12 11 -6 16
5 21 4 16 -4 -4 -7 1 -23 10 -38 9 -14 12 -22 6 -19 -16 10 9 -44 31 -68 10
-11 18 -30 18 -42 0 -12 6 -25 13 -27 9 -4 9 -6 -1 -6 -10 -1 -10 -4 0 -15 7
-8 18 -11 23 -8 6 3 5 -1 -2 -9 -13 -17 5 -49 28 -49 11 0 11 -2 -1 -10 -12
-8 -11 -10 7 -10 12 0 25 -5 29 -12 5 -8 1 -9 -12 -5 -16 6 -15 4 4 -12 15
-13 18 -21 10 -24 -7 -3 -4 -6 7 -6 17 -1 17 -3 5 -11 -10 -6 -11 -10 -2 -10
6 0 12 -5 12 -11 0 -5 -6 -7 -12 -3 -14 8 5 -18 35 -48 15 -16 22 -45 18 -70
0 -5 4 -8 10 -8 5 0 8 -4 5 -8 -3 -5 10 -26 29 -47 19 -21 35 -41 35 -46 0 -5
6 -9 13 -9 9 0 8 -3 -2 -9 -9 -6 -10 -11 -2 -15 6 -4 11 -20 11 -37 0 -16 5
-29 10 -29 6 0 9 -3 9 -7 -3 -21 3 -33 17 -33 8 0 12 -5 9 -10 -3 -6 0 -10 7
-10 9 0 9 -3 -2 -10 -10 -6 -11 -10 -2 -10 6 0 12 -7 12 -15 0 -8 4 -15 9 -15
5 0 8 -8 7 -17 0 -10 5 -17 12 -15 7 1 12 -3 11 -10 -1 -7 -1 -20 0 -28 1 -13
2 -13 12 0 9 12 10 11 6 -7 -3 -15 -1 -20 9 -16 10 4 14 -4 14 -31 0 -22 5
-36 13 -36 8 0 7 -4 -3 -10 -12 -8 -11 -11 8 -16 17 -5 20 -9 11 -20 -8 -10
-5 -16 10 -26 12 -7 21 -16 21 -21 0 -4 -4 -5 -10 -2 -19 12 -10 -7 13 -26 16
-13 18 -19 7 -19 -8 -1 -4 -6 10 -11 18 -7 21 -12 11 -18 -10 -6 -9 -10 4 -15
9 -3 13 -10 10 -16 -3 -5 -1 -10 4 -10 6 0 11 -7 11 -15 0 -8 6 -15 13 -15 8
0 7 -4 -3 -10 -10 -6 -11 -10 -2 -10 6 0 12 -7 12 -15 0 -8 5 -15 11 -15 5 0
7 -5 4 -10 -3 -6 2 -10 12 -10 15 0 16 -2 3 -10 -11 -7 -11 -10 -2 -10 8 0 10
-5 6 -12 -5 -7 -2 -9 7 -6 9 4 14 -2 15 -19 1 -13 10 -30 20 -38 11 -7 19 -19
19 -27 1 -7 7 -12 14 -10 7 1 10 -2 6 -8 -4 -6 1 -22 10 -37 9 -14 12 -22 5
-18 -9 5 -8 1 1 -16 7 -13 13 -31 14 -39 0 -8 8 -14 18 -14 9 1 17 -2 17 -7 0
-5 -6 -9 -12 -9 -7 -1 -2 -10 11 -20 13 -11 18 -20 12 -20 -6 0 -11 -5 -11
-11 0 -5 4 -8 9 -5 9 6 31 -36 31 -58 0 -8 7 -16 15 -20 8 -3 12 -12 9 -21 -4
-8 1 -17 10 -21 9 -3 13 -11 10 -16 -4 -6 0 -14 7 -19 11 -7 11 -9 1 -9 -10 0
-10 -3 0 -14 7 -8 16 -12 19 -10 3 2 6 -3 6 -11 0 -8 -5 -12 -10 -8 -5 3 -1
-7 9 -23 24 -38 29 -43 20 -20 -5 16 -4 17 8 6 9 -6 14 -17 13 -23 -1 -7 3
-11 8 -10 10 2 15 -17 15 -64 0 -13 5 -23 10 -23 6 0 10 -5 10 -11 0 -7 8 -18
18 -25 9 -7 17 -18 17 -26 1 -7 5 -12 11 -11 5 1 11 -6 12 -15 7 -74 21 -114
35 -105 6 4 8 0 4 -9 -4 -13 1 -15 24 -14 17 1 33 -2 35 -6 3 -5 12 -4 19 2
10 8 15 8 20 0 5 -8 10 -8 20 0 9 8 15 8 20 0 3 -6 10 -8 15 -5 4 3 504 5
1110 5 1034 0 1104 1 1117 18 12 16 13 16 6 -2 -4 -13 -3 -17 5 -12 7 4 12 13
12 21 0 7 7 21 16 29 12 12 12 16 2 16 -10 0 -9 3 2 10 8 5 11 12 8 16 -9 8
14 33 25 27 11 -7 4 21 -8 29 -6 4 -2 8 9 8 10 0 16 5 13 13 -5 14 17 39 27
30 3 -4 6 -1 6 5 0 7 -6 12 -12 12 -7 0 -2 9 12 20 17 13 20 20 10 20 -11 1
-10 4 5 16 11 8 19 22 17 30 -2 8 2 14 9 14 6 0 8 7 5 16 -4 11 -2 15 8 11 8
-3 17 1 20 9 3 8 2 13 -3 10 -5 -4 -4 5 2 19 7 14 17 25 22 25 6 0 3 5 -5 10
-12 7 -10 11 10 19 14 5 20 10 13 10 -7 1 -10 8 -7 16 4 8 10 13 14 10 5 -3
11 -1 15 5 3 5 0 10 -7 10 -10 0 -10 2 1 9 8 5 10 14 6 21 -5 7 -4 11 1 8 5
-3 15 0 22 8 10 11 10 14 0 14 -10 0 -10 2 1 9 8 5 10 14 6 21 -5 9 -4 11 3 6
7 -4 12 -1 12 9 0 9 4 14 8 11 4 -2 9 5 9 16 1 12 8 25 15 29 7 5 9 9 4 9 -6
0 -1 7 10 16 10 8 13 13 7 9 -9 -4 -11 -1 -7 9 3 9 10 13 15 10 5 -3 6 2 3 10
-4 10 -1 16 7 16 11 0 11 3 -1 11 -12 9 -10 10 9 5 18 -4 21 -2 12 7 -6 6 -11
15 -11 21 0 5 3 6 7 3 3 -4 11 3 18 16 8 15 8 24 1 29 -7 5 -4 8 6 8 9 0 20 5
24 12 4 7 3 8 -4 4 -7 -4 -12 -3 -12 2 0 6 7 13 16 16 8 3 13 10 10 15 -4 5 0
12 6 14 10 4 10 6 0 6 -18 1 11 31 30 31 8 0 9 3 3 8 -18 13 -15 31 5 37 19 6
44 70 34 86 -2 4 4 14 15 21 11 8 22 27 24 44 3 16 9 28 16 27 6 -2 13 8 17
22 3 14 10 25 15 25 5 0 5 7 2 17 -4 11 -3 14 5 9 7 -4 13 -1 14 6 0 7 2 18 2
24 1 6 8 20 16 30 13 16 13 17 0 10 -8 -4 -4 2 10 14 14 12 19 18 11 14 -9 -5
-12 -3 -7 4 4 7 15 12 24 12 10 0 13 3 7 8 -13 9 -18 35 -6 27 6 -3 13 6 17
20 3 14 11 25 18 25 6 0 4 5 -4 10 -12 7 -12 10 -1 10 8 0 11 6 7 16 -4 12 -2
15 9 11 8 -4 17 -2 20 3 4 6 1 10 -4 10 -6 0 -11 5 -11 12 0 6 3 9 6 5 10 -9
32 16 27 30 -3 8 3 13 13 13 11 0 15 4 9 8 -12 8 -19 36 -8 29 11 -6 34 19 25
27 -3 4 0 11 8 16 8 5 15 15 16 22 0 7 2 23 2 36 1 15 6 21 14 16 8 -5 9 -2 5
10 -4 10 -3 15 3 11 6 -3 10 1 10 9 0 9 8 16 18 16 14 0 15 2 2 10 -13 9 -13
10 0 10 12 0 12 2 2 9 -10 6 -8 10 10 15 18 5 20 8 9 15 -11 7 -10 11 7 20 13
7 19 17 16 26 -4 8 -2 15 4 15 5 0 13 7 16 16 4 10 2 13 -7 9 -6 -4 -3 1 7 9
11 9 16 16 10 16 -5 0 -2 5 6 10 13 9 13 10 0 10 -8 1 -4 6 9 11 20 8 22 11
10 27 -7 9 -10 14 -5 10 11 -10 35 14 29 29 -3 7 1 13 8 13 12 0 12 2 1 9 -11
7 -11 9 2 14 9 4 16 13 16 22 0 8 6 15 13 15 8 0 7 4 -3 10 -13 9 -8 14 12 12
3 -1 9 5 12 13 3 8 0 15 -7 16 -7 0 -1 5 13 11 14 6 20 12 13 15 -10 3 -10 7
0 18 7 7 15 11 20 8 4 -2 7 0 7 6 0 5 -6 11 -12 13 -8 3 -4 9 10 17 19 10 21
15 11 27 -9 11 -8 14 7 15 11 0 14 3 7 5 -7 3 -10 11 -7 19 3 8 -4 20 -15 27
-13 8 -21 23 -21 40 0 16 -5 28 -12 28 -6 0 -8 3 -5 7 4 3 -1 12 -11 20 -9 8
-12 12 -6 9 6 -3 11 1 11 9 0 8 -4 12 -8 10 -3 -3 -9 4 -12 15 -4 14 -10 18
-24 14 -15 -6 -16 -4 -5 7 14 16 16 33 2 24 -9 -6 -11 1 -14 45 -1 8 -9 16
-19 18 -13 3 -17 10 -14 23 3 12 -2 25 -16 34 -20 14 -22 20 -30 75 -2 14 -11
26 -21 28 -12 3 -16 10 -13 22 3 10 -6 29 -19 44 -14 14 -25 29 -27 33 -1 5
-6 7 -11 5 -5 -2 -3 5 5 14 9 12 9 15 2 10 -9 -5 -13 1 -13 21 0 17 -8 33 -20
41 -11 7 -20 21 -20 32 0 11 -4 20 -8 20 -5 0 -9 6 -10 13 -3 38 -8 53 -20 60
-7 5 -9 13 -6 19 4 6 3 9 -2 6 -5 -3 -14 0 -21 7 -10 11 -10 15 0 18 9 4 9 6
0 6 -7 1 -13 12 -13 25 0 13 -5 26 -10 28 -6 2 -12 13 -13 26 -1 17 -6 21 -22
16 -11 -3 -16 -2 -10 3 12 10 19 37 8 30 -5 -3 -13 1 -20 8 -10 11 -10 15 0
18 9 4 9 6 0 6 -7 1 -13 8 -13 16 0 8 -5 15 -10 15 -6 0 -9 3 -9 8 4 25 -2 42
-13 36 -9 -5 -8 -2 1 10 13 15 12 18 -8 23 -17 4 -19 8 -9 14 10 7 11 9 0 9
-7 0 -10 4 -7 10 3 6 -1 7 -10 4 -11 -4 -14 -2 -10 9 4 8 -1 17 -11 21 -14 5
-14 9 -3 24 7 9 10 14 5 10 -11 -9 -35 14 -29 28 2 6 -3 18 -11 27 -8 8 -12
17 -9 21 4 3 -2 6 -13 6 -16 0 -17 2 -4 10 11 7 11 10 2 10 -7 0 -11 4 -8 9 4
5 1 11 -6 13 -10 4 -13 14 -20 66 -1 6 -5 12 -10 12 -5 0 -6 4 -3 10 3 6 -1 7
-10 4 -11 -4 -14 -2 -10 9 4 8 -1 17 -9 20 -9 4 -13 13 -10 20 3 8 -1 21 -9
28 -7 8 -15 19 -18 24 -2 6 -8 9 -13 7 -5 -2 -3 5 5 14 9 12 9 15 2 10 -12 -6
-18 5 -14 27 0 4 -3 7 -9 7 -5 0 -10 7 -10 15 0 8 -6 15 -12 15 -9 0 -8 4 2
10 10 6 11 10 3 10 -7 0 -13 7 -13 15 0 8 -5 15 -10 15 -6 0 -9 6 -8 13 2 6
-3 11 -11 9 -12 -3 -12 -1 0 14 9 12 9 15 2 10 -9 -5 -13 0 -13 13 0 12 -5 21
-10 21 -6 0 -9 3 -9 8 4 21 -3 32 -18 32 -14 0 -15 2 -5 9 11 6 10 10 -3 15
-15 5 -15 9 -4 24 7 9 10 14 5 10 -11 -9 -35 14 -29 28 2 6 -3 18 -11 27 -8 8
-12 17 -9 21 4 3 -2 6 -13 6 -16 0 -17 2 -4 10 11 7 11 10 2 10 -7 0 -11 4 -8
9 3 5 -1 12 -10 15 -14 5 -14 9 -3 23 8 9 10 14 4 11 -12 -7 -30 12 -30 32 0
8 -6 14 -13 12 -9 -2 -11 4 -7 18 4 13 1 22 -9 26 -9 3 -14 10 -11 14 3 5 -2
13 -11 18 -11 6 -13 11 -5 16 6 4 11 12 11 18 0 6 -3 9 -6 5 -9 -9 -32 16 -27
29 2 6 -3 19 -12 28 -9 9 -13 16 -10 16 4 0 -1 8 -12 18 -10 9 -12 13 -3 7 12
-8 13 -7 3 5 -7 9 -29 17 -50 18 -21 2 -39 7 -41 12 -4 12 -2291 14 -2293 3z
m-434 -883 c-3 -5 -11 -10 -16 -10 -6 0 -7 5 -4 10 3 6 11 10 16 10 6 0 7 -4
4 -10z m-398 -1985 c0 -8 -4 -12 -9 -9 -5 3 -6 10 -3 15 9 13 12 11 12 -6z
m27 -41 c3 -8 2 -12 -4 -9 -6 3 -10 10 -10 16 0 14 7 11 14 -7z m3681 -643
c-3 -6 -11 -11 -16 -11 -5 0 -4 6 3 14 14 16 24 13 13 -3z"/>
<path d="M1075 4520 c-3 -5 -2 -10 4 -10 5 0 13 5 16 10 3 6 2 10 -4 10 -5 0
-13 -4 -16 -10z"/>
<path d="M230 1826 c0 -2 7 -9 15 -16 13 -11 14 -10 9 4 -5 14 -24 23 -24 12z"/>
<path d="M4045 1120 c-3 -5 -2 -10 4 -10 5 0 13 5 16 10 3 6 2 10 -4 10 -5 0
-13 -4 -16 -10z"/>
<path d="M715 860 c3 -5 8 -10 11 -10 2 0 4 5 4 10 0 6 -5 10 -11 10 -5 0 -7
-4 -4 -10z"/>
<path d="M1035 220 c3 -5 8 -10 11 -10 2 0 4 5 4 10 0 6 -5 10 -11 10 -5 0 -7
-4 -4 -10z"/>
</g>
</svg>
